solid s53f
facet normal 1.0 0.0 0.0
outer loop
vertex 36.11329897927052 41.43373665126516 2.9999999999999996
vertex 36.11329897927052 40.43373665126516 3.999999999999999
vertex 36.11329897927052 40.43373665126516 2.9999999999999996
endloop
endfacet
facet normal 1.0 0.0 0.0
outer loop
vertex 36.11329897927052 40.43373665126516 3.999999999999999
vertex 36.11329897927052 41.43373665126516 2.9999999999999996
vertex 36.11329897927052 40.45278945975436 4.999999999999998
endloop
endfacet
facet normal 1.0 0.0 0.0
outer loop
vertex 36.11329897927052 40.45278945975436 4.999999999999998
vertex 36.11329897927052 41.43373665126516 2.9999999999999996
vertex 36.11329897927052 41.43373665126516 4.999999999999998
endloop
endfacet
facet normal 1.0 0.0 0.0
outer loop
vertex 36.11329897927052 40.43373665126516 3.999999999999999
vertex 36.11329897927052 39.443263055509746 4.999999999999998
vertex 36.11329897927052 38.433736651265164 3.999999999999999
endloop
endfacet
facet normal 1.0 0.0 0.0
outer loop
vertex 36.11329897927052 39.443263055509746 4.999999999999998
vertex 36.11329897927052 40.43373665126516 3.999999999999999
vertex 36.11329897927052 40.45278945975436 4.999999999999998
endloop
endfacet
facet normal 0.0 1.0 0.0
outer loop
vertex 28.113298979270525 41.43373665126516 4.999999999999998
vertex 36.11329897927052 41.43373665126516 2.9999999999999996
vertex 28.113298979270525 41.43373665126516 2.9999999999999996
endloop
endfacet
facet normal 0.0 1.0 0.0
outer loop
vertex 36.11329897927052 41.43373665126516 2.9999999999999996
vertex 28.113298979270525 41.43373665126516 4.999999999999998
vertex 36.11329897927052 41.43373665126516 4.999999999999998
endloop
endfacet
facet normal 0.0 0.0 -1.0
outer loop
vertex 36.11329897927052 40.43373665126516 3.999999999999999
vertex 28.113298979270525 38.433736651265164 3.999999999999999
vertex 28.113298979270525 40.43373665126516 3.999999999999999
endloop
endfacet
facet normal 0.0 0.0 -1.0
outer loop
vertex 28.113298979270525 38.433736651265164 3.999999999999999
vertex 36.11329897927052 40.43373665126516 3.999999999999999
vertex 36.11329897927052 38.433736651265164 3.999999999999999
endloop
endfacet
facet normal 0.0 0.0 1.0
outer loop
vertex 36.11329897927052 39.443263055509746 4.999999999999998
vertex 28.113298979270525 40.45278945975436 4.999999999999998
vertex 28.113298979270525 39.443263055509746 4.999999999999998
endloop
endfacet
facet normal 0.0 0.0 1.0
outer loop
vertex 28.113298979270525 40.45278945975436 4.999999999999998
vertex 36.11329897927052 39.443263055509746 4.999999999999998
vertex 36.11329897927052 40.45278945975436 4.999999999999998
endloop
endfacet
facet normal 0.0 0.0 1.0
outer loop
vertex 36.11329897927052 40.45278945975436 4.999999999999998
vertex 28.113298979270525 41.43373665126516 4.999999999999998
vertex 28.113298979270525 40.45278945975436 4.999999999999998
endloop
endfacet
facet normal 0.0 0.0 1.0
outer loop
vertex 28.113298979270525 41.43373665126516 4.999999999999998
vertex 36.11329897927052 40.45278945975436 4.999999999999998
vertex 36.11329897927052 41.43373665126516 4.999999999999998
endloop
endfacet
facet normal 0.0 -0.7037467477384364 0.7104509237432054
outer loop
vertex 36.11329897927052 38.433736651265164 3.999999999999999
vertex 28.113298979270525 39.443263055509746 4.999999999999998
vertex 28.113298979270525 38.433736651265164 3.999999999999999
endloop
endfacet
facet normal 0.0 -0.7037467477384364 0.7104509237432054
outer loop
vertex 28.113298979270525 39.443263055509746 4.999999999999998
vertex 36.11329897927052 38.433736651265164 3.999999999999999
vertex 36.11329897927052 39.443263055509746 4.999999999999998
endloop
endfacet
facet normal 0.0 -1.0 0.0
outer loop
vertex 36.11329897927052 40.43373665126516 3.999999999999999
vertex 28.113298979270525 40.43373665126516 2.9999999999999996
vertex 36.11329897927052 40.43373665126516 2.9999999999999996
endloop
endfacet
facet normal 0.0 -1.0 0.0
outer loop
vertex 28.113298979270525 40.43373665126516 2.9999999999999996
vertex 36.11329897927052 40.43373665126516 3.999999999999999
vertex 28.113298979270525 40.43373665126516 3.999999999999999
endloop
endfacet
facet normal -1.0 0.0 0.0
outer loop
vertex 28.113298979270525 39.443263055509746 4.999999999999998
vertex 28.113298979270525 40.43373665126516 3.999999999999999
vertex 28.113298979270525 38.433736651265164 3.999999999999999
endloop
endfacet
facet normal -1.0 0.0 0.0
outer loop
vertex 28.113298979270525 40.43373665126516 3.999999999999999
vertex 28.113298979270525 39.443263055509746 4.999999999999998
vertex 28.113298979270525 40.45278945975436 4.999999999999998
endloop
endfacet
facet normal -1.0 0.0 0.0
outer loop
vertex 28.113298979270525 40.43373665126516 3.999999999999999
vertex 28.113298979270525 40.45278945975436 4.999999999999998
vertex 28.113298979270525 40.43373665126516 2.9999999999999996
endloop
endfacet
facet normal -1.0 0.0 0.0
outer loop
vertex 28.113298979270525 40.43373665126516 2.9999999999999996
vertex 28.113298979270525 40.45278945975436 4.999999999999998
vertex 28.113298979270525 41.43373665126516 2.9999999999999996
endloop
endfacet
facet normal -1.0 0.0 0.0
outer loop
vertex 28.113298979270525 41.43373665126516 2.9999999999999996
vertex 28.113298979270525 40.45278945975436 4.999999999999998
vertex 28.113298979270525 41.43373665126516 4.999999999999998
endloop
endfacet
facet normal 1.0 0.0 0.0
outer loop
vertex 16.12047726623736 41.43373665126516 2.9999999999999996
vertex 16.12047726623736 40.43373665126516 3.999999999999999
vertex 16.12047726623736 40.43373665126516 2.9999999999999996
endloop
endfacet
facet normal 1.0 0.0 0.0
outer loop
vertex 16.12047726623736 40.43373665126516 3.999999999999999
vertex 16.12047726623736 41.43373665126516 2.9999999999999996
vertex 16.12047726623736 40.45278945975436 4.999999999999998
endloop
endfacet
facet normal 1.0 0.0 0.0
outer loop
vertex 16.12047726623736 40.45278945975436 4.999999999999998
vertex 16.12047726623736 41.43373665126516 2.9999999999999996
vertex 16.12047726623736 41.43373665126516 4.999999999999998
endloop
endfacet
facet normal 1.0 0.0 0.0
outer loop
vertex 16.12047726623736 40.43373665126516 3.999999999999999
vertex 16.12047726623736 39.443263055509746 4.999999999999998
vertex 16.12047726623736 38.433736651265164 3.999999999999999
endloop
endfacet
facet normal 1.0 0.0 0.0
outer loop
vertex 16.12047726623736 39.443263055509746 4.999999999999998
vertex 16.12047726623736 40.43373665126516 3.999999999999999
vertex 16.12047726623736 40.45278945975436 4.999999999999998
endloop
endfacet
facet normal 0.0 1.0 0.0
outer loop
vertex 8.12047726623736 41.43373665126516 4.999999999999998
vertex 16.12047726623736 41.43373665126516 2.9999999999999996
vertex 8.12047726623736 41.43373665126516 2.9999999999999996
endloop
endfacet
facet normal 0.0 1.0 0.0
outer loop
vertex 16.12047726623736 41.43373665126516 2.9999999999999996
vertex 8.12047726623736 41.43373665126516 4.999999999999998
vertex 16.12047726623736 41.43373665126516 4.999999999999998
endloop
endfacet
facet normal 0.0 0.0 -1.0
outer loop
vertex 16.12047726623736 40.43373665126516 3.999999999999999
vertex 8.12047726623736 38.433736651265164 3.999999999999999
vertex 8.12047726623736 40.43373665126516 3.999999999999999
endloop
endfacet
facet normal 0.0 0.0 -1.0
outer loop
vertex 8.12047726623736 38.433736651265164 3.999999999999999
vertex 16.12047726623736 40.43373665126516 3.999999999999999
vertex 16.12047726623736 38.433736651265164 3.999999999999999
endloop
endfacet
facet normal 0.0 0.0 1.0
outer loop
vertex 16.12047726623736 39.443263055509746 4.999999999999998
vertex 8.12047726623736 40.45278945975436 4.999999999999998
vertex 8.12047726623736 39.443263055509746 4.999999999999998
endloop
endfacet
facet normal 0.0 0.0 1.0
outer loop
vertex 8.12047726623736 40.45278945975436 4.999999999999998
vertex 16.12047726623736 39.443263055509746 4.999999999999998
vertex 16.12047726623736 40.45278945975436 4.999999999999998
endloop
endfacet
facet normal 0.0 0.0 1.0
outer loop
vertex 16.12047726623736 40.45278945975436 4.999999999999998
vertex 8.12047726623736 41.43373665126516 4.999999999999998
vertex 8.12047726623736 40.45278945975436 4.999999999999998
endloop
endfacet
facet normal 0.0 0.0 1.0
outer loop
vertex 8.12047726623736 41.43373665126516 4.999999999999998
vertex 16.12047726623736 40.45278945975436 4.999999999999998
vertex 16.12047726623736 41.43373665126516 4.999999999999998
endloop
endfacet
facet normal 0.0 -0.7037467477384364 0.7104509237432054
outer loop
vertex 16.12047726623736 38.433736651265164 3.999999999999999
vertex 8.12047726623736 39.443263055509746 4.999999999999998
vertex 8.12047726623736 38.433736651265164 3.999999999999999
endloop
endfacet
facet normal 0.0 -0.7037467477384364 0.7104509237432054
outer loop
vertex 8.12047726623736 39.443263055509746 4.999999999999998
vertex 16.12047726623736 38.433736651265164 3.999999999999999
vertex 16.12047726623736 39.443263055509746 4.999999999999998
endloop
endfacet
facet normal 0.0 -1.0 0.0
outer loop
vertex 16.12047726623736 40.43373665126516 3.999999999999999
vertex 8.12047726623736 40.43373665126516 2.9999999999999996
vertex 16.12047726623736 40.43373665126516 2.9999999999999996
endloop
endfacet
facet normal 0.0 -1.0 0.0
outer loop
vertex 8.12047726623736 40.43373665126516 2.9999999999999996
vertex 16.12047726623736 40.43373665126516 3.999999999999999
vertex 8.12047726623736 40.43373665126516 3.999999999999999
endloop
endfacet
facet normal -1.0 0.0 0.0
outer loop
vertex 8.12047726623736 39.443263055509746 4.999999999999998
vertex 8.12047726623736 40.43373665126516 3.999999999999999
vertex 8.12047726623736 38.433736651265164 3.999999999999999
endloop
endfacet
facet normal -1.0 0.0 0.0
outer loop
vertex 8.12047726623736 40.43373665126516 3.999999999999999
vertex 8.12047726623736 39.443263055509746 4.999999999999998
vertex 8.12047726623736 40.45278945975436 4.999999999999998
endloop
endfacet
facet normal -1.0 0.0 0.0
outer loop
vertex 8.12047726623736 40.43373665126516 3.999999999999999
vertex 8.12047726623736 40.45278945975436 4.999999999999998
vertex 8.12047726623736 40.43373665126516 2.9999999999999996
endloop
endfacet
facet normal -1.0 0.0 0.0
outer loop
vertex 8.12047726623736 40.43373665126516 2.9999999999999996
vertex 8.12047726623736 40.45278945975436 4.999999999999998
vertex 8.12047726623736 41.43373665126516 2.9999999999999996
endloop
endfacet
facet normal -1.0 0.0 0.0
outer loop
vertex 8.12047726623736 41.43373665126516 2.9999999999999996
vertex 8.12047726623736 40.45278945975436 4.999999999999998
vertex 8.12047726623736 41.43373665126516 4.999999999999998
endloop
endfacet
facet normal 0.0 0.0 1.0
outer loop
vertex 29.037813047998455 62.444207661955154 4.999999999999998
vertex 17.037813047998455 63.43897215661013 4.999999999999998
vertex 17.037813047998455 62.444207661955154 4.999999999999998
endloop
endfacet
facet normal 0.0 0.0 1.0
outer loop
vertex 17.037813047998455 63.43897215661013 4.999999999999998
vertex 29.037813047998455 62.444207661955154 4.999999999999998
vertex 29.037813047998455 63.43897215661013 4.999999999999998
endloop
endfacet
facet normal 0.0 -1.0 0.0
outer loop
vertex 29.037813047998455 61.433736651265164 4.999999999999998
vertex 17.037813047998455 61.433736651265164 2.9999999999999996
vertex 29.037813047998455 61.433736651265164 2.9999999999999996
endloop
endfacet
facet normal 0.0 -1.0 0.0
outer loop
vertex 17.037813047998455 61.433736651265164 2.9999999999999996
vertex 29.037813047998455 61.433736651265164 4.999999999999998
vertex 17.037813047998455 61.433736651265164 4.999999999999998
endloop
endfacet
facet normal -0.0 -0.0 -1.0
outer loop
vertex 29.037813047998455 64.43373665126515 3.999999999999999
vertex 17.037813047998455 62.43373665126516 3.999999999999999
vertex 17.037813047998455 64.43373665126515 3.999999999999999
endloop
endfacet
facet normal -0.0 -0.0 -1.0
outer loop
vertex 17.037813047998455 62.43373665126516 3.999999999999999
vertex 29.037813047998455 64.43373665126515 3.999999999999999
vertex 29.037813047998455 62.43373665126516 3.999999999999999
endloop
endfacet
facet normal 0.0 1.0 0.0
outer loop
vertex 17.037813047998455 62.43373665126516 3.999999999999999
vertex 29.037813047998455 62.43373665126516 2.9999999999999996
vertex 17.037813047998455 62.43373665126516 2.9999999999999996
endloop
endfacet
facet normal 0.0 1.0 0.0
outer loop
vertex 29.037813047998455 62.43373665126516 2.9999999999999996
vertex 17.037813047998455 62.43373665126516 3.999999999999999
vertex 29.037813047998455 62.43373665126516 3.999999999999999
endloop
endfacet
facet normal 0.0 0.7089602282266115 0.7052484631623602
outer loop
vertex 17.037813047998455 63.43897215661013 4.999999999999998
vertex 29.037813047998455 64.43373665126515 3.999999999999999
vertex 17.037813047998455 64.43373665126515 3.999999999999999
endloop
endfacet
facet normal 0.0 0.7089602282266115 0.7052484631623602
outer loop
vertex 29.037813047998455 64.43373665126515 3.999999999999999
vertex 17.037813047998455 63.43897215661013 4.999999999999998
vertex 29.037813047998455 63.43897215661013 4.999999999999998
endloop
endfacet
facet normal 1.0 0.0 0.0
outer loop
vertex 29.037813047998455 62.43373665126516 2.9999999999999996
vertex 29.037813047998455 61.433736651265164 4.999999999999998
vertex 29.037813047998455 61.433736651265164 2.9999999999999996
endloop
endfacet
facet normal 1.0 0.0 0.0
outer loop
vertex 29.037813047998455 61.433736651265164 4.999999999999998
vertex 29.037813047998455 62.43373665126516 2.9999999999999996
vertex 29.037813047998455 62.43373665126516 3.999999999999999
endloop
endfacet
facet normal 1.0 0.0 0.0
outer loop
vertex 29.037813047998455 61.433736651265164 4.999999999999998
vertex 29.037813047998455 62.43373665126516 3.999999999999999
vertex 29.037813047998455 62.444207661955154 4.999999999999998
endloop
endfacet
facet normal 1.0 0.0 0.0
outer loop
vertex 29.037813047998455 62.444207661955154 4.999999999999998
vertex 29.037813047998455 62.43373665126516 3.999999999999999
vertex 29.037813047998455 64.43373665126515 3.999999999999999
endloop
endfacet
facet normal 1.0 0.0 0.0
outer loop
vertex 29.037813047998455 62.444207661955154 4.999999999999998
vertex 29.037813047998455 64.43373665126515 3.999999999999999
vertex 29.037813047998455 63.43897215661013 4.999999999999998
endloop
endfacet
facet normal -1.0 0.0 0.0
outer loop
vertex 17.037813047998455 62.444207661955154 4.999999999999998
vertex 17.037813047998455 61.433736651265164 2.9999999999999996
vertex 17.037813047998455 61.433736651265164 4.999999999999998
endloop
endfacet
facet normal -1.0 0.0 0.0
outer loop
vertex 17.037813047998455 61.433736651265164 2.9999999999999996
vertex 17.037813047998455 62.444207661955154 4.999999999999998
vertex 17.037813047998455 62.43373665126516 3.999999999999999
endloop
endfacet
facet normal -1.0 0.0 0.0
outer loop
vertex 17.037813047998455 62.43373665126516 3.999999999999999
vertex 17.037813047998455 62.444207661955154 4.999999999999998
vertex 17.037813047998455 64.43373665126515 3.999999999999999
endloop
endfacet
facet normal -1.0 0.0 0.0
outer loop
vertex 17.037813047998455 64.43373665126515 3.999999999999999
vertex 17.037813047998455 62.444207661955154 4.999999999999998
vertex 17.037813047998455 63.43897215661013 4.999999999999998
endloop
endfacet
facet normal -1.0 0.0 0.0
outer loop
vertex 17.037813047998455 62.43373665126516 2.9999999999999996
vertex 17.037813047998455 61.433736651265164 2.9999999999999996
vertex 17.037813047998455 62.43373665126516 3.999999999999999
endloop
endfacet
facet normal 0.0 0.0 1.0
outer loop
vertex 29.037813047998455 61.433736651265164 4.999999999999998
vertex 17.037813047998455 62.444207661955154 4.999999999999998
vertex 17.037813047998455 61.433736651265164 4.999999999999998
endloop
endfacet
facet normal 0.0 0.0 1.0
outer loop
vertex 17.037813047998455 62.444207661955154 4.999999999999998
vertex 29.037813047998455 61.433736651265164 4.999999999999998
vertex 29.037813047998455 62.444207661955154 4.999999999999998
endloop
endfacet
facet normal 0.0 0.0 -1.0
outer loop
vertex 42.537813047998455 65.43373665126515 0.0
vertex 0.037813047998458325 37.43373665126516 0.0
vertex 0.037813047998458325 65.43373665126515 0.0
endloop
endfacet
facet normal 0.0 0.0 -1.0
outer loop
vertex 0.037813047998458325 37.43373665126516 0.0
vertex 42.537813047998455 65.43373665126515 0.0
vertex 42.537813047998455 37.43373665126516 0.0
endloop
endfacet
facet normal -1.0 0.0 0.0
outer loop
vertex 0.037813047998458325 58.066858109769846 8.499999999999998
vertex 0.037813047998458325 45.066858109769846 1.9999999999999998
vertex 0.037813047998458325 45.066858109769846 8.499999999999998
endloop
endfacet
facet normal -1.0 0.0 0.0
outer loop
vertex 0.037813047998458325 45.066858109769846 1.9999999999999998
vertex 0.037813047998458325 37.43373665126516 0.0
vertex 0.037813047998458325 37.43373665126516 1.9999999999999998
endloop
endfacet
facet normal -1.0 0.0 0.0
outer loop
vertex 0.037813047998458325 37.43373665126516 0.0
vertex 0.037813047998458325 45.066858109769846 1.9999999999999998
vertex 0.037813047998458325 65.43373665126515 0.0
endloop
endfacet
facet normal -1.0 0.0 0.0
outer loop
vertex 0.037813047998458325 65.43373665126515 0.0
vertex 0.037813047998458325 45.066858109769846 1.9999999999999998
vertex 0.037813047998458325 58.066858109769846 1.9999999999999998
endloop
endfacet
facet normal -1.0 0.0 0.0
outer loop
vertex 0.037813047998458325 58.066858109769846 1.9999999999999998
vertex 0.037813047998458325 45.066858109769846 1.9999999999999998
vertex 0.037813047998458325 58.066858109769846 8.499999999999998
endloop
endfacet
facet normal -1.0 0.0 0.0
outer loop
vertex 0.037813047998458325 65.43373665126515 0.0
vertex 0.037813047998458325 58.066858109769846 1.9999999999999998
vertex 0.037813047998458325 65.43373665126515 1.9999999999999998
endloop
endfacet
facet normal -0.0 1.0 0.0
outer loop
vertex 0.037813047998458325 65.43373665126515 1.9999999999999998
vertex 42.537813047998455 65.43373665126515 0.0
vertex 0.037813047998458325 65.43373665126515 0.0
endloop
endfacet
facet normal -0.0 1.0 0.0
outer loop
vertex 42.537813047998455 65.43373665126515 0.0
vertex 0.037813047998458325 65.43373665126515 1.9999999999999998
vertex 42.537813047998455 65.43373665126515 1.9999999999999998
endloop
endfacet
facet normal 1.0 0.0 0.0
outer loop
vertex 42.537813047998455 65.43373665126515 0.0
vertex 42.537813047998455 37.43373665126516 1.9999999999999998
vertex 42.537813047998455 37.43373665126516 0.0
endloop
endfacet
facet normal 1.0 0.0 0.0
outer loop
vertex 42.537813047998455 37.43373665126516 1.9999999999999998
vertex 42.537813047998455 65.43373665126515 0.0
vertex 42.537813047998455 65.43373665126515 1.9999999999999998
endloop
endfacet
facet normal -0.0 -1.0 -0.0
outer loop
vertex 42.537813047998455 37.43373665126516 1.9999999999999998
vertex 0.037813047998458325 37.43373665126516 0.0
vertex 42.537813047998455 37.43373665126516 0.0
endloop
endfacet
facet normal -0.0 -1.0 -0.0
outer loop
vertex 0.037813047998458325 37.43373665126516 0.0
vertex 42.537813047998455 37.43373665126516 1.9999999999999998
vertex 0.037813047998458325 37.43373665126516 1.9999999999999998
endloop
endfacet
facet normal -0.0 -0.0 1.0
outer loop
vertex 0.037813047998458325 37.43373665126516 1.9999999999999998
vertex 6.113298979270525 40.43373665126516 1.9999999999999998
vertex 0.037813047998458325 45.066858109769846 1.9999999999999998
endloop
endfacet
facet normal -0.0 -0.0 1.0
outer loop
vertex 6.113298979270525 40.43373665126516 1.9999999999999998
vertex 0.037813047998458325 37.43373665126516 1.9999999999999998
vertex 42.537813047998455 37.43373665126516 1.9999999999999998
endloop
endfacet
facet normal -0.0 -0.0 1.0
outer loop
vertex 0.037813047998458325 45.066858109769846 1.9999999999999998
vertex 6.113298979270525 40.43373665126516 1.9999999999999998
vertex 1.0378130479984582 45.066858109769846 1.9999999999999998
endloop
endfacet
facet normal -0.0 -0.0 1.0
outer loop
vertex 1.0378130479984582 45.066858109769846 1.9999999999999998
vertex 6.113298979270525 40.43373665126516 1.9999999999999998
vertex 1.0378130479984582 58.066858109769846 1.9999999999999998
endloop
endfacet
facet normal -0.0 -0.0 1.0
outer loop
vertex 6.113298979270525 40.43373665126516 1.9999999999999998
vertex 42.537813047998455 37.43373665126516 1.9999999999999998
vertex 36.11329897927052 40.43373665126516 1.9999999999999998
endloop
endfacet
facet normal -0.0 -0.0 1.0
outer loop
vertex 36.11329897927052 40.43373665126516 1.9999999999999998
vertex 42.537813047998455 37.43373665126516 1.9999999999999998
vertex 36.11329897927052 62.43373665126512 1.9999999999999998
endloop
endfacet
facet normal -0.0 -0.0 1.0
outer loop
vertex 1.0378130479984582 58.066858109769846 1.9999999999999998
vertex 0.037813047998458325 65.43373665126515 1.9999999999999998
vertex 0.037813047998458325 58.066858109769846 1.9999999999999998
endloop
endfacet
facet normal -0.0 -0.0 1.0
outer loop
vertex 0.037813047998458325 65.43373665126515 1.9999999999999998
vertex 1.0378130479984582 58.066858109769846 1.9999999999999998
vertex 6.113298979270525 62.43373665126512 1.9999999999999998
endloop
endfacet
facet normal -0.0 -0.0 1.0
outer loop
vertex 0.037813047998458325 65.43373665126515 1.9999999999999998
vertex 6.113298979270525 62.43373665126512 1.9999999999999998
vertex 42.537813047998455 65.43373665126515 1.9999999999999998
endloop
endfacet
facet normal -0.0 -0.0 1.0
outer loop
vertex 6.113298979270525 62.43373665126512 1.9999999999999998
vertex 1.0378130479984582 58.066858109769846 1.9999999999999998
vertex 6.113298979270525 40.43373665126516 1.9999999999999998
endloop
endfacet
facet normal -0.0 -0.0 1.0
outer loop
vertex 42.537813047998455 65.43373665126515 1.9999999999999998
vertex 6.113298979270525 62.43373665126512 1.9999999999999998
vertex 36.11329897927052 62.43373665126512 1.9999999999999998
endloop
endfacet
facet normal -0.0 -0.0 1.0
outer loop
vertex 42.537813047998455 65.43373665126515 1.9999999999999998
vertex 36.11329897927052 62.43373665126512 1.9999999999999998
vertex 42.537813047998455 37.43373665126516 1.9999999999999998
endloop
endfacet
facet normal 0.0 0.0 1.0
outer loop
vertex 1.0378130479984582 45.066858109769846 8.499999999999998
vertex 0.037813047998458325 58.066858109769846 8.499999999999998
vertex 0.037813047998458325 45.066858109769846 8.499999999999998
endloop
endfacet
facet normal 0.0 0.0 1.0
outer loop
vertex 0.037813047998458325 58.066858109769846 8.499999999999998
vertex 1.0378130479984582 45.066858109769846 8.499999999999998
vertex 1.0378130479984582 58.066858109769846 8.499999999999998
endloop
endfacet
facet normal 0.0 -1.0 0.0
outer loop
vertex 1.0378130479984582 45.066858109769846 8.499999999999998
vertex 0.037813047998458325 45.066858109769846 1.9999999999999998
vertex 1.0378130479984582 45.066858109769846 1.9999999999999998
endloop
endfacet
facet normal 0.0 -1.0 0.0
outer loop
vertex 0.037813047998458325 45.066858109769846 1.9999999999999998
vertex 1.0378130479984582 45.066858109769846 8.499999999999998
vertex 0.037813047998458325 45.066858109769846 8.499999999999998
endloop
endfacet
facet normal 1.0 -0.0 0.0
outer loop
vertex 1.0378130479984582 58.066858109769846 1.9999999999999998
vertex 1.0378130479984582 45.066858109769846 8.499999999999998
vertex 1.0378130479984582 45.066858109769846 1.9999999999999998
endloop
endfacet
facet normal 1.0 -0.0 0.0
outer loop
vertex 1.0378130479984582 45.066858109769846 8.499999999999998
vertex 1.0378130479984582 58.066858109769846 1.9999999999999998
vertex 1.0378130479984582 58.066858109769846 8.499999999999998
endloop
endfacet
facet normal 0.0 1.0 0.0
outer loop
vertex 0.037813047998458325 58.066858109769846 8.499999999999998
vertex 1.0378130479984582 58.066858109769846 1.9999999999999998
vertex 0.037813047998458325 58.066858109769846 1.9999999999999998
endloop
endfacet
facet normal 0.0 1.0 0.0
outer loop
vertex 1.0378130479984582 58.066858109769846 1.9999999999999998
vertex 0.037813047998458325 58.066858109769846 8.499999999999998
vertex 1.0378130479984582 58.066858109769846 8.499999999999998
endloop
endfacet
facet normal -0.9999999999999999 -0.0 -0.0
outer loop
vertex 6.113298979270525 62.43373665126512 2.9999999999999996
vertex 6.113298979270525 40.43373665126516 1.9999999999999998
vertex 6.113298979270525 40.43373665126516 2.9999999999999996
endloop
endfacet
facet normal -0.9999999999999999 -0.0 -0.0
outer loop
vertex 6.113298979270525 40.43373665126516 1.9999999999999998
vertex 6.113298979270525 62.43373665126512 2.9999999999999996
vertex 6.113298979270525 62.43373665126512 1.9999999999999998
endloop
endfacet
facet normal 0.0 -1.0 0.0
outer loop
vertex 36.11329897927052 40.43373665126516 2.9999999999999996
vertex 6.113298979270525 40.43373665126516 1.9999999999999998
vertex 36.11329897927052 40.43373665126516 1.9999999999999998
endloop
endfacet
facet normal 0.0 -1.0 0.0
outer loop
vertex 6.113298979270525 40.43373665126516 1.9999999999999998
vertex 36.11329897927052 40.43373665126516 2.9999999999999996
vertex 6.113298979270525 40.43373665126516 2.9999999999999996
endloop
endfacet
facet normal 0.0 1.0 0.0
outer loop
vertex 6.113298979270525 62.43373665126512 2.9999999999999996
vertex 36.11329897927052 62.43373665126512 1.9999999999999998
vertex 6.113298979270525 62.43373665126512 1.9999999999999998
endloop
endfacet
facet normal 0.0 1.0 0.0
outer loop
vertex 36.11329897927052 62.43373665126512 1.9999999999999998
vertex 6.113298979270525 62.43373665126512 2.9999999999999996
vertex 36.11329897927052 62.43373665126512 2.9999999999999996
endloop
endfacet
facet normal 0.0 0.0 1.0
outer loop
vertex 36.11329897927052 40.43373665126516 2.9999999999999996
vertex 6.113298979270525 62.43373665126512 2.9999999999999996
vertex 6.113298979270525 40.43373665126516 2.9999999999999996
endloop
endfacet
facet normal 0.0 0.0 1.0
outer loop
vertex 6.113298979270525 62.43373665126512 2.9999999999999996
vertex 36.11329897927052 40.43373665126516 2.9999999999999996
vertex 36.11329897927052 62.43373665126512 2.9999999999999996
endloop
endfacet
facet normal 0.9999999999999999 -0.0 0.0
outer loop
vertex 36.11329897927052 62.43373665126512 1.9999999999999998
vertex 36.11329897927052 40.43373665126516 2.9999999999999996
vertex 36.11329897927052 40.43373665126516 1.9999999999999998
endloop
endfacet
facet normal 0.9999999999999999 -0.0 0.0
outer loop
vertex 36.11329897927052 40.43373665126516 2.9999999999999996
vertex 36.11329897927052 62.43373665126512 1.9999999999999998
vertex 36.11329897927052 62.43373665126512 2.9999999999999996
endloop
endfacet
endsolid s53f
